<svg xmlns="http://www.w3.org/2000/svg" xmlns:xlink="http://www.w3.org/1999/xlink" viewBox="0 0 2173.01 480.08"><defs><style>.cls-1{fill:#002642;}.cls-2{fill:url(#Degradado_sin_nombre_219);}.cls-3{fill:url(#Degradado_sin_nombre_219-2);}.cls-4{fill:url(#Degradado_sin_nombre_219-3);}.cls-5{fill:url(#Degradado_sin_nombre_219-4);}.cls-6{fill:url(#Degradado_sin_nombre_219-5);}.cls-7{fill:url(#Degradado_sin_nombre_219-6);}.cls-8{fill:url(#Degradado_sin_nombre_219-7);}.cls-9{fill:url(#Degradado_sin_nombre_219-8);}</style><linearGradient id="Degradado_sin_nombre_219" x1="122.06" y1="439.29" x2="147.8" y2="439.29" gradientUnits="userSpaceOnUse"><stop offset="0" stop-color="#508991"/><stop offset="0.31" stop-color="#2f6070"/><stop offset="0.59" stop-color="#154057"/><stop offset="0.83" stop-color="#062d48"/><stop offset="1" stop-color="#002642"/></linearGradient><linearGradient id="Degradado_sin_nombre_219-2" x1="224.09" y1="14.27" x2="252.31" y2="14.27" xlink:href="#Degradado_sin_nombre_219"/><linearGradient id="Degradado_sin_nombre_219-3" x1="96.01" y1="422.43" x2="121" y2="422.43" xlink:href="#Degradado_sin_nombre_219"/><linearGradient id="Degradado_sin_nombre_219-4" x1="255.56" y1="16.03" x2="283.12" y2="16.03" xlink:href="#Degradado_sin_nombre_219"/><linearGradient id="Degradado_sin_nombre_219-5" x1="149.75" y1="243.15" x2="480.08" y2="243.15" xlink:href="#Degradado_sin_nombre_219"/><linearGradient id="Degradado_sin_nombre_219-6" x1="0" y1="212.56" x2="220.7" y2="212.56" xlink:href="#Degradado_sin_nombre_219"/><linearGradient id="Degradado_sin_nombre_219-7" x1="125.27" y1="220.72" x2="385.94" y2="220.72" xlink:href="#Degradado_sin_nombre_219"/><linearGradient id="Degradado_sin_nombre_219-8" x1="134.3" y1="226.39" x2="240.04" y2="226.39" xlink:href="#Degradado_sin_nombre_219"/></defs><g id="Capa_2" data-name="Capa 2"><g id="Capa_1-2" data-name="Capa 1"><path class="cls-1" d="M664.17,300.19H582.7c-21.52,0-36.61-3.83-46.46-13.48C528.39,279.06,524,268,524,254.32c0-13.28,4.62-24.34,12.47-32,9.85-9.66,24.94-13.28,46.46-13.28h81.27V233.8H588.34c-11.87,0-19.72,1-24.34,5.23-3.62,3.42-5.44,8.45-5.44,15.69S560.38,267,564,270.41c4.62,4.23,12.47,5,24.34,5h75.83Z"/><path class="cls-1" d="M866.53,300.19H785.06c-21.52,0-36.61-3.83-46.46-13.48-7.85-7.65-12.28-18.71-12.28-32.39,0-13.28,4.63-24.34,12.48-32,9.85-9.66,24.94-13.28,46.46-13.28h81.27V233.8H790.69c-11.86,0-19.71,1-24.34,5.23-3.62,3.42-5.43,8.45-5.43,15.69s1.81,12.27,5.43,15.69c4.63,4.23,12.48,5,24.34,5h75.84Z"/><path class="cls-1" d="M963.89,264.58a10.93,10.93,0,0,0,3.82,7.85c3.62,2.81,10.06,3.82,22.33,3.82h82.87v23.94H984.2c-20.92,0-34.8-4-43.85-12.88-7.64-7.44-11.67-18.51-11.67-33,0-15.09,5.44-25.14,13.08-32.18,10.26-9.46,27.56-13.08,48.68-13.08h27.36c22.13,0,38.62,2.62,49.68,12.88,8,7.24,13.08,18.7,13.08,33.79a54.57,54.57,0,0,1-.81,8.85Zm82.87-19.91a10.82,10.82,0,0,0-5.23-9.26c-3.82-2.41-10.26-2.81-19.71-2.81H989c-9.45,0-15.89.4-19.71,2.81a10.82,10.82,0,0,0-5.23,9.26Z"/><path class="cls-1" d="M1249.52,242.65c15.29,0,23.94,2.62,30,8.25,5,4.83,7.64,12.47,7.64,20.52s-2.61,15.49-7.64,20.32c-6,5.63-14.89,8.45-29.77,8.45h-99V277.05h98c5,0,7.24-1.61,7.24-5.43,0-3.42-2.41-5.43-7.24-5.43h-65.78c-15.29,0-23.94-2.82-30-8.45-5-4.83-7.64-12.07-7.64-20.12s2.61-15.28,7.64-20.11c6-5.63,15.09-8.45,30-8.45h96.76v23.13h-96c-5,0-7.24,1.41-7.24,5.23,0,3.42,2.41,5.23,7.24,5.23Z"/><path class="cls-1" d="M1356.34,209.06h92.73c21.52,0,36.61,3.82,46.47,13.48,7.84,7.64,12.27,18.71,12.27,32.39,0,13.27-4.63,24.34-12.47,32-9.86,9.65-24.95,13.28-46.47,13.28h-58.54v49.08h-34Zm34,24.74v41.64h53.11c11.86,0,19.71-1,24.34-5.23,3.62-3.42,5.43-8.45,5.43-15.69s-1.81-12.27-5.43-15.69c-4.63-4.22-12.48-5-24.34-5Z"/><path class="cls-1" d="M1582.83,222.34c9.86-9.66,25-13.28,46.47-13.28h92.53v91.13H1629.1c-21.52,0-36.61-3.83-46.47-13.48-7.84-7.65-12.27-18.71-12.27-32.39C1570.36,241,1575,230,1582.83,222.34Zm105,53.1V233.8h-53.11c-11.87,0-19.71,1-24.34,5.23-3.62,3.42-5.43,8.45-5.43,15.69s1.81,12.27,5.43,15.69c4.63,4.23,12.47,5,24.34,5Z"/><path class="cls-1" d="M1794.45,255.13c0-15.9,2.81-26.15,10.66-33.8,9.85-9.45,24.34-12.27,46.06-12.27h47.68V234H1856c-11.67,0-18.91.81-22.93,4.83-3.22,3.22-4.63,8.45-4.63,18.11v43.25h-34Z"/><path class="cls-1" d="M1965.43,163.6h34v45.46h58.34V232.8h-58.34v19.91c0,9.25,1.41,14.48,4.63,17.7,4,4,11.06,4.83,22.73,4.83h41.64v24.95h-47.68c-24.54,0-37.61-3.83-45.46-11.87-6.84-7.05-9.85-15.89-9.85-32.59Z"/><path class="cls-1" d="M2152.09,302.6c-13.47,0-20.71-2.62-20.71-17.3s7.24-17.3,20.71-17.3c13.68,0,20.92,2.61,20.92,17.3S2165.77,302.6,2152.09,302.6Z"/><path class="cls-2" d="M147.8,430.2q-8.6-4.33-16.73-9.45l-9,28.37q8.28,4.68,17,8.72Z"/><path class="cls-3" d="M240.55,27.93c1,0,2,0,3,0L252.31.31C248.24.1,244.16,0,240,0q-3.47,0-6.92.11l-9,28.44C229.52,28.13,235,27.91,240.55,27.93Z"/><path class="cls-4" d="M111.81,443,121,414q-8-5.7-15.4-12.11L96,432.08Q103.68,437.84,111.81,443Z"/><path class="cls-5" d="M264.23,1.21l-8.67,27.31q9.63.72,19,2.33l8.57-27Q273.79,2.17,264.23,1.21Z"/><path class="cls-6" d="M294.57,6.22,286,33.14C379,54.52,448.28,139.33,448,240.54c-.28,117.15-93.63,211.89-208.5,211.62a203.91,203.91,0,0,1-81.13-17l-8.66,27.3A239.21,239.21,0,0,0,240,480.08c132.57,0,240-107.47,240-240C480.08,126.23,400.87,30.92,294.57,6.22Z"/><path class="cls-7" d="M86.26,424.35l9.88-31.13A213.51,213.51,0,0,1,32.05,239.55c.25-107.08,78.27-195.42,179.4-209.62L220.7.78C97.18,10.63,0,114,0,240A239.55,239.55,0,0,0,86.26,424.35Z"/><polygon class="cls-8" points="385.94 299.06 265.01 142.39 217.64 142.39 336.91 272.53 154.25 261.46 125.27 299.06 335.38 298.94 335.47 299.06 385.94 299.06"/><polygon class="cls-9" points="240.04 194.47 238.88 190.92 134.3 221.08 135.69 226.47 192.8 208.96 154.25 261.46 160.96 261.87 199.15 207.01 240.04 194.47"/></g></g></svg>